# xmcd
#
# Track frame offsets: 
#        150
#        27670
#        53222
#        71871
#        90571
#        105714
#        136070
#        153926
#        176110
#        191784
#        217170
#        230487
#        241729
#        252904
#        276392
#        296791
#
# Disc length: 4135 seconds
#
# Revision: 1
# Processed by: cddbd v1.5.2PL0 Copyright (c) Steve Scherf et al.
# Submitted via: ExactAudioCopy v1.0b4
#
DISCID=f8102510
DTITLE=Mitch Woods - Friends Along The Way
DYEAR=2017
DGENRE=Blues
TTITLE0=Take This Hammer (Mitch Woods, Taj Mahal and Van Morrison)
TTITLE1=C.C. Rider (Mitch Woods, Taj Mahal and Van Morrison)
TTITLE2=Keep A Dollar In Your Pocket (Mitch Woods and Elvin Bishop)
TTITLE3=Singin' The Blues (Mitch Woods and Ruthie Foster)
TTITLE4=Mother In Law Blues (Mitch Woods and John Hammond)
TTITLE5=Cryin' For My Baby (Mitch Woods and Charlie Musselwhite)
TTITLE6=Nasty Boogie (Mitch Woods and Joe Louis Walker)
TTITLE7=Empty Bed Blues (Mitch Woods and Maria Muldaur)
TTITLE8=Blues Mobile (Mitch Woods and Kenny Neal)
TTITLE9=The Blues (Mitch Woods and Cyril Neville)
TTITLE10=Saturday Night Boogie Woogie Man (Mitch Woods and Elvin Bishop)
TTITLE11=Blues Gave Me A Ride (Mitch Woods and Charlie Musselwhite)
TTITLE12=Chicken Express (Mitch Woods and James Cotton)
TTITLE13=Never Get Out Of These Blues Alive (Mitch Woods and John Lee Ho
TTITLE13=oker)
TTITLE14=Midnight Hour Blues (Mitch Woods, Taj Mahal and Van Morrison)
TTITLE15=In The Night (Mitch Woods and Marcia Ball)
EXTD=
EXTT0=
EXTT1=
EXTT2=
EXTT3=
EXTT4=
EXTT5=
EXTT6=
EXTT7=
EXTT8=
EXTT9=
EXTT10=
EXTT11=
EXTT12=
EXTT13=
EXTT14=
EXTT15=
PLAYORDER=
